# xmcd CD database file
#
# Track frame offsets:
#	150
#	18940
#	35752
#	54697
#	73002
#	87790
#	105972
#	123520
#	140077
#	154787
#	175552
#	194142
#	208525
#	219277
#	243305
#
# Disc length: 3516 seconds
#
# Revision: 0
# Processed by: cddbd v1.5PL3 Copyright (c) Steve Scherf et al.
# Submitted via: CDex 1.50
#
DISCID=d20dba0f
DTITLE=Various Artist - Folk Village Vol.3 〜フォーク＆ニューミュージック大全集〜ソニー・ミュージック編 Disc2
DYEAR=2001
DGENRE=Folk
TTITLE0=五輪真弓 - 恋人よ
TTITLE1=村下孝蔵 - 初恋
TTITLE2=よしだたくろう - 襟裳岬
TTITLE3=河島英五 - 酒と泪と男と女
TTITLE4=五輪真弓 - さよならだけは言わないで
TTITLE5=バンバン - 冷たい雨
TTITLE6=ふきのとう - 思い出通り雨
TTITLE7=猫 - 各駅停車
TTITLE8=五輪真弓 - 心の友
TTITLE9=村下孝蔵 - 春雨
TTITLE10=岸田智史 - 重いつばさ
TTITLE11=下田逸朗 - さりげない夜
TTITLE12=中川イサト - プロペラ市さえ町あれば通り１の２の３
TTITLE13=友部正人 - 夕暮れ
TTITLE14=よしだたくろう - 人生を語らず
EXTD=YEAR: 2001
EXTT0=
EXTT1=
EXTT2=
EXTT3=
EXTT4=
EXTT5=
EXTT6=
EXTT7=
EXTT8=
EXTT9=
EXTT10=
EXTT11=
EXTT12=
EXTT13=
EXTT14=
PLAYORDER=
